<svg width="808" height="753" viewBox="0 0 808 753" fill="none" xmlns="http://www.w3.org/2000/svg">
<path d="M120.483 622.038C121.07 623.564 121.364 624.856 121.364 625.913C121.364 628.379 120.483 630.493 118.722 632.254C116.96 634.016 114.788 634.896 112.204 634.896C110.443 634.896 108.74 634.427 107.096 633.487C105.57 632.43 104.454 631.021 103.749 629.26L93.8853 604.599H30.6492L20.609 629.26C19.787 631.021 18.6127 632.43 17.0861 633.487C15.5595 634.427 13.9155 634.896 12.154 634.896C9.57055 634.896 7.39809 634.016 5.63664 632.254C3.99262 630.375 3.17061 628.203 3.17061 625.737C3.17061 624.563 3.46419 623.212 4.05134 621.685L53.5481 503.492C55.3096 499.382 58.1866 497.327 62.1792 497.327C66.4067 497.327 69.2837 499.382 70.8103 503.492L120.483 622.038ZM36.8143 589.451H87.7202L62.5315 526.743L36.8143 589.451ZM150.45 634.896C147.866 634.896 145.694 634.016 143.933 632.254C142.289 630.493 141.467 628.32 141.467 625.737V506.487C141.467 503.903 142.347 501.731 144.109 499.969C145.87 498.208 147.984 497.327 150.45 497.327C153.033 497.327 155.206 498.208 156.967 499.969C158.729 501.731 159.609 503.903 159.609 506.487V616.577H223.374C225.957 616.577 228.13 617.458 229.891 619.219C231.653 620.981 232.534 623.153 232.534 625.737C232.534 628.32 231.653 630.493 229.891 632.254C228.13 634.016 225.957 634.896 223.374 634.896H150.45ZM357.35 622.038C357.937 623.564 358.231 624.856 358.231 625.913C358.231 628.379 357.35 630.493 355.589 632.254C353.827 634.016 351.655 634.896 349.071 634.896C347.31 634.896 345.607 634.427 343.963 633.487C342.437 632.43 341.321 631.021 340.616 629.26L330.752 604.599H267.516L257.476 629.26C256.654 631.021 255.48 632.43 253.953 633.487C252.426 634.427 250.782 634.896 249.021 634.896C246.437 634.896 244.265 634.016 242.504 632.254C240.86 630.375 240.038 628.203 240.038 625.737C240.038 624.563 240.331 623.212 240.918 621.685L290.415 503.492C292.176 499.382 295.054 497.327 299.046 497.327C303.274 497.327 306.151 499.382 307.677 503.492L357.35 622.038ZM273.681 589.451H324.587L299.398 526.743L273.681 589.451ZM481.202 622.038C481.789 623.564 482.083 624.856 482.083 625.913C482.083 628.379 481.202 630.493 479.441 632.254C477.679 634.016 475.507 634.896 472.923 634.896C471.162 634.896 469.459 634.427 467.815 633.487C466.289 632.43 465.173 631.021 464.468 629.26L454.604 604.599H391.368L381.328 629.26C380.506 631.021 379.332 632.43 377.805 633.487C376.278 634.427 374.634 634.896 372.873 634.896C370.289 634.896 368.117 634.016 366.356 632.254C364.712 630.375 363.89 628.203 363.89 625.737C363.89 624.563 364.183 623.212 364.77 621.685L414.267 503.492C416.028 499.382 418.906 497.327 422.898 497.327C427.126 497.327 430.003 499.382 431.529 503.492L481.202 622.038ZM397.533 589.451H448.439L423.25 526.743L397.533 589.451ZM500.248 634.896C497.664 634.896 495.492 634.016 493.73 632.254C491.969 630.493 491.088 628.32 491.088 625.737V506.487C491.088 503.786 491.969 501.613 493.73 499.969C495.492 498.208 497.664 497.327 500.248 497.327H579.865C582.566 497.327 584.739 498.149 586.383 499.793C588.027 501.32 588.849 503.375 588.849 505.958C588.849 508.424 588.027 510.421 586.383 511.947C584.739 513.474 582.566 514.237 579.865 514.237H509.407V557.04H559.961C562.544 557.04 564.658 557.862 566.302 559.506C568.064 561.033 568.944 563.029 568.944 565.495C568.944 567.961 568.064 570.016 566.302 571.66C564.658 573.187 562.544 573.95 559.961 573.95H509.407V625.737C509.407 628.32 508.527 630.493 506.765 632.254C505.004 634.016 502.831 634.896 500.248 634.896ZM621.436 634.896C618.852 634.896 616.68 634.016 614.918 632.254C613.157 630.493 612.276 628.32 612.276 625.737V506.487C612.276 503.786 613.157 501.613 614.918 499.969C616.68 498.208 618.852 497.327 621.436 497.327C624.137 497.327 626.309 498.208 627.953 499.969C629.714 501.613 630.595 503.786 630.595 506.487V625.737C630.595 628.32 629.714 630.493 627.953 632.254C626.309 634.016 624.137 634.896 621.436 634.896ZM768.642 622.038C769.229 623.564 769.523 624.856 769.523 625.913C769.523 628.379 768.642 630.493 766.881 632.254C765.119 634.016 762.947 634.896 760.363 634.896C758.602 634.896 756.899 634.427 755.255 633.487C753.728 632.43 752.613 631.021 751.908 629.26L742.044 604.599H678.808L668.768 629.26C667.946 631.021 666.771 632.43 665.245 633.487C663.718 634.427 662.074 634.896 660.313 634.896C657.729 634.896 655.557 634.016 653.795 632.254C652.151 630.375 651.329 628.203 651.329 625.737C651.329 624.563 651.623 623.212 652.21 621.685L701.707 503.492C703.468 499.382 706.345 497.327 710.338 497.327C714.566 497.327 717.443 499.382 718.969 503.492L768.642 622.038ZM684.973 589.451H735.879L710.69 526.743L684.973 589.451Z" fill="#322C97"/>
<path d="M155.063 722.974C155.063 722.974 163.415 732.286 178.583 732.286C192.791 732.286 201.047 723.166 201.047 712.318C201.047 690.526 168.983 693.502 168.983 681.406C168.983 676.606 173.495 673.246 179.255 673.246C187.799 673.246 194.327 679.198 194.327 679.198L199.703 669.118C199.703 669.118 192.791 661.822 179.351 661.822C166.295 661.822 156.503 670.27 156.503 681.598C156.503 702.526 188.663 700.414 188.663 712.606C188.663 718.174 183.959 720.862 178.775 720.862C169.175 720.862 161.783 713.662 161.783 713.662L155.063 722.974ZM208.699 696.574C208.699 716.638 223.867 732.286 243.931 732.286C263.995 732.286 279.163 716.638 279.163 696.574C279.163 677.086 263.995 661.822 243.931 661.822C223.867 661.822 208.699 677.086 208.699 696.574ZM221.467 696.574C221.467 683.134 231.451 673.15 243.931 673.15C256.411 673.15 266.395 683.134 266.395 696.574C266.395 710.59 256.411 720.958 243.931 720.958C231.451 720.958 221.467 710.59 221.467 696.574ZM291.778 731.134H333.634V720.478H304.162V662.974H291.778V731.134ZM341.724 706.654C341.724 721.918 352.764 732.286 369.276 732.286C385.692 732.286 396.732 721.918 396.732 706.654V662.974H384.348V706.558C384.348 715.774 378.3 720.958 369.18 720.958C360.06 720.958 354.108 715.774 354.108 706.654V662.974H341.724V706.654ZM427.202 731.134H439.586V673.63H461.954V662.974H404.834V673.63H427.202V731.134ZM470.934 731.134H483.318V662.974H470.934V731.134ZM495.855 696.574C495.855 716.638 511.023 732.286 531.087 732.286C551.151 732.286 566.319 716.638 566.319 696.574C566.319 677.086 551.151 661.822 531.087 661.822C511.023 661.822 495.855 677.086 495.855 696.574ZM508.623 696.574C508.623 683.134 518.607 673.15 531.087 673.15C543.567 673.15 553.551 683.134 553.551 696.574C553.551 710.59 543.567 720.958 531.087 720.958C518.607 720.958 508.623 710.59 508.623 696.574ZM578.934 731.134H591.318V691.87C591.318 687.838 590.646 681.31 590.646 681.31H590.838C590.838 681.31 593.91 687.934 596.502 691.87L622.326 731.134H634.614V662.974H622.326V702.334C622.326 706.366 622.998 712.894 622.998 712.894H622.806C622.806 712.894 619.734 706.27 617.142 702.334L591.318 662.974H578.934V731.134ZM646.688 722.974C646.688 722.974 655.04 732.286 670.208 732.286C684.416 732.286 692.672 723.166 692.672 712.318C692.672 690.526 660.608 693.502 660.608 681.406C660.608 676.606 665.12 673.246 670.88 673.246C679.424 673.246 685.952 679.198 685.952 679.198L691.328 669.118C691.328 669.118 684.416 661.822 670.976 661.822C657.92 661.822 648.128 670.27 648.128 681.598C648.128 702.526 680.288 700.414 680.288 712.606C680.288 718.174 675.584 720.862 670.4 720.862C660.8 720.862 653.408 713.662 653.408 713.662L646.688 722.974Z" fill="#7F7F7F"/>
<path d="M615.275 73.3432C615.356 68.8105 614.024 67.7417 609.282 68.6578C603.537 69.6864 597.713 70.2767 591.868 70.4232C540.078 72.408 491.911 60.2891 446.579 37.0247C431.313 29.1999 418.459 20.354 404.031 11.2601L390.501 1.08784C389.987 0.552906 389.316 0.174325 388.574 0C388.483 0 388.504 0 388.443 0H388.362H388.282C387.538 0.171055 386.867 0.550172 386.355 1.08784L372.835 11.2792C358.407 20.3445 345.593 29.1903 330.277 37.0437C284.945 60.2796 236.767 72.3985 184.988 70.4423C179.139 70.2953 173.312 69.705 167.563 68.6769C162.821 67.7227 161.51 68.8296 161.57 73.3623C161.802 88.1149 161.631 102.877 161.651 117.639C161.745 162.73 161.87 207.822 162.024 252.913C162.024 255.222 162.024 255.222 162.156 260.68C162.189 265.493 162.503 270.3 163.094 275.08C167.644 313.125 180.458 348.433 203.169 380.247C223.116 408.178 247.967 431.681 276.823 451.386C285.903 457.617 295.428 463.352 304.7 469.402C308.393 471.807 309.957 470.7 310.754 466.835C319.538 421.668 328.373 376.5 337.259 331.332C339.136 321.904 340.699 314.815 343.121 303.106C345.653 290.052 346.783 287.485 347.459 279.46C348.919 273.066 350.379 266.667 351.838 260.26L352.101 258.008L347.197 251.749C345.682 249.81 344.497 247.659 343.686 245.374C341.991 240.546 340.003 235.832 339.297 230.564C335.624 203.273 359.315 179.827 385.013 178.224C386.173 178.157 387.313 178.119 388.443 178.119C389.573 178.119 390.723 178.119 391.873 178.224C417.582 179.827 441.312 203.273 437.589 230.564C436.853 235.832 434.865 240.603 433.16 245.374C432.356 247.661 431.175 249.812 429.659 251.749L424.755 258.008L425.018 260.26C426.47 266.66 427.927 273.06 429.386 279.46C430.072 287.485 431.192 290.052 433.735 303.106C436.156 314.815 437.771 321.904 439.597 331.332C448.536 376.5 457.371 421.668 466.102 466.835C466.859 470.652 468.423 471.807 472.156 469.402C481.418 463.352 490.912 457.617 500.033 451.386C528.879 431.681 553.74 408.178 573.686 380.247C596.358 348.433 609.171 313.125 613.762 275.061C614.353 270.281 614.667 265.474 614.7 260.661C614.832 255.203 614.811 255.203 614.831 252.894C615.06 207.802 615.175 162.711 615.175 117.62C615.225 102.858 615.053 88.0958 615.275 73.3432Z" fill="url(#paint0_linear_1130_1894)"/>
<path d="M160.743 72.9043L335.978 241.08L352.141 258.39L345.189 285.472L160.743 72.9043Z" fill="url(#paint1_linear_1130_1894)"/>
<path d="M615.931 68.467L440.434 241.281L424.745 258.018L430.385 286.893L615.931 68.467Z" fill="url(#paint2_linear_1130_1894)"/>
<defs>
<linearGradient id="paint0_linear_1130_1894" x1="161.53" y1="235.336" x2="615.285" y2="235.336" gradientUnits="userSpaceOnUse">
<stop stop-color="#3C44FF"/>
<stop offset="0.97" stop-color="#7DC2FF"/>
</linearGradient>
<linearGradient id="paint1_linear_1130_1894" x1="160.743" y1="179.188" x2="352.141" y2="179.188" gradientUnits="userSpaceOnUse">
<stop stop-color="#3738FF"/>
<stop offset="0.97" stop-color="#699DFF"/>
</linearGradient>
<linearGradient id="paint2_linear_1130_1894" x1="565.342" y1="120.75" x2="446.286" y2="267.321" gradientUnits="userSpaceOnUse">
<stop stop-color="#67C2FF"/>
<stop offset="0.07" stop-color="#62B0FF"/>
<stop offset="0.21" stop-color="#5A93FF"/>
<stop offset="0.36" stop-color="#547DFF"/>
<stop offset="0.53" stop-color="#4F6DFF"/>
<stop offset="0.71" stop-color="#4D64FF"/>
<stop offset="0.97" stop-color="#4C61FF"/>
</linearGradient>
</defs>
</svg>
